PathFileType	4	(X/Y/Z)	C:\Users\Basilio\Documents\Thesis Gigler\squatting_fais\c3dfiles\040\SLS_pre_back1\markers_experimental.trc
DataRate	CameraRate	NumFrames	NumMarkers	Units	OrigDataRate	OrigDataStartFrame	OrigNumFrames
200.000000	200.000000	4	64	mm	200.000000	0	1073
Frame#	Time	FHD			LBHD			RBHD			C7			T10			CLAV			LSHO			LUUPA			LMUPA			LDUPA			LLEP			LMEP			LRAD			LUL			LRFIN			RSHO			RUPA1			RMUPA			RDUPA			RLEP			RMEP			RRAD			RUL			RUFIN			LASI			RASI			USACR			LSACR			RSACR			LTHI1			LTHI2			LTHI3			LTHI4			LLFC			LMFC			LTIB1			LTIB2			LTIB3			LTIB4			LLMAL			LMMAL			LHEE			LMT1			LMT2			LMT5			RTHI			RTHI2			RTHI3			RTHI4			RLFC			RMFC			RTIB1			RTIB2			RTIB3			RTIB4			RLMAL			RMMAL			RHEE			RMT1			RMT2			RMT5			*61			*62			*63			
		X1	Y1	Z1	X2	Y2	Z2	X3	Y3	Z3	X4	Y4	Z4	X5	Y5	Z5	X6	Y6	Z6	X7	Y7	Z7	X8	Y8	Z8	X9	Y9	Z9	X10	Y10	Z10	X11	Y11	Z11	X12	Y12	Z12	X13	Y13	Z13	X14	Y14	Z14	X15	Y15	Z15	X16	Y16	Z16	X17	Y17	Z17	X18	Y18	Z18	X19	Y19	Z19	X20	Y20	Z20	X21	Y21	Z21	X22	Y22	Z22	X23	Y23	Z23	X24	Y24	Z24	X25	Y25	Z25	X26	Y26	Z26	X27	Y27	Z27	X28	Y28	Z28	X29	Y29	Z29	X30	Y30	Z30	X31	Y31	Z31	X32	Y32	Z32	X33	Y33	Z33	X34	Y34	Z34	X35	Y35	Z35	X36	Y36	Z36	X37	Y37	Z37	X38	Y38	Z38	X39	Y39	Z39	X40	Y40	Z40	X41	Y41	Z41	X42	Y42	Z42	X43	Y43	Z43	X44	Y44	Z44	X45	Y45	Z45	X46	Y46	Z46	X47	Y47	Z47	X48	Y48	Z48	X49	Y49	Z49	X50	Y50	Z50	X51	Y51	Z51	X52	Y52	Z52	X53	Y53	Z53	X54	Y54	Z54	X55	Y55	Z55	X56	Y56	Z56	X57	Y57	Z57	X58	Y58	Z58	X59	Y59	Z59	X60	Y60	Z60	X61	Y61	Z61	X62	Y62	Z62	X63	Y63	Z63	X64	Y64	Z64	

1	0	-142.5628967285157	1765.56494140625	-1228.998779296875	-269.9952697753907	1723.56640625	-1269.344970703125	-326.2243652343751	1692.629272460938	-1136.928466796875	-350.0482177734376	1569.824584960938	-1185.731811523438	-400.1304016113282	1253.681274414063	-1171.542236328125	-226.3478698730469	1490.663452148438	-1185.0927734375	-274.6731567382813	1543.871215820313	-1336.221801757813	-137.6740264892578	1430.41552734375	-1405.859375	-102.0503005981446	1439.73876953125	-1371.825805664063	-76.64613342285158	1396.533203125	-1406.781860351563	-31.95809555053712	1352.172973632813	-1403.053955078125	-60.41453552246095	1305.800537109375	-1364.188842773438	214.8151397705079	1293.649047851563	-1263.706787109375	232.3010406494141	1289.022827148438	-1337.267456054688	305.9378662109376	1289.619995117188	-1249.77392578125	-261.8879699707032	1520.077392578125	-1032.863891601563	-143.3138122558594	1378.348388671875	-974.6692504882815	-104.8951950073242	1393.465698242188	-999.9613037109377	-85.94306945800783	1338.837768554688	-983.0106201171877	-32.20387649536134	1310.035766601563	-996.1040649414065	-63.02993774414064	1266.925170898438	-1050.582641601563	219.0790100097657	1271.251586914063	-1143.507080078125	225.6367645263672	1237.717651367188	-1075.1826171875	312.2313232421876	1261.451171875	-1148.34033203125	-226.9279479980469	1070.01611328125	-1283.55859375	-215.4920196533204	1075.039916992188	-1054.429321289063	-407.8530273437501	1114.908813476563	-1157.013549804688	-415.7879638671876	1084.816162109375	-1184.005126953125	-413.1323852539064	1085.046142578125	-1127.059692382813	-325.2776184082032	808.2573852539065	-1321.318603515625	-279.4622497558594	736.7153930664064	-1319.942260742188	-234.3071594238282	744.5938110351564	-1326.39697265625	-295.6543579101563	682.6285400390626	-1304.006103515625	-263.5974426269532	551.9097290039064	-1286.47021484375	-267.4805297851563	544.7221069335939	-1154.269775390625	-247.6833648681641	327.7887573242188	-1222.103393554688	-321.0140380859376	294.8716735839844	-1259.431518554688	-279.6984252929688	283.7186279296876	-1245.461303710938	-281.8345947265626	208.9769592285157	-1200.653076171875	-356.6643066406251	128.5277862548828	-1206.84814453125	-327.2210998535157	145.3890686035157	-1126.704711914063	-421.2364196777345	99.97771453857425	-1161.307006835938	-209.0803527832032	55.72175216674806	-1127.800415039063	-207.5445251464844	49.26394271850587	-1173.357421875	-255.9681701660157	34.58502960205079	-1224.002075195313	-218.1551666259766	807.684753417969	-986.0081176757815	-176.143310546875	756.5361328125001	-992.453063964844	-145.5528106689453	763.7048950195314	-1000.53857421875	-194.3187255859376	675.4724731445314	-997.868347167969	-189.8709564208985	562.7742919921876	-1011.541564941406	-200.704086303711	556.4041137695314	-1137.958129882813	-296.2701721191407	411.1910400390626	-1031.735229492188	-399.7860412597657	428.166717529297	-1003.8330078125	-377.3490295410157	388.7015991210939	-1014.717041015625	-408.1588439941407	347.9945678710938	-1048.2060546875	-530.6539916992189	320.1733703613282	-1021.467529296875	-510.1610107421876	321.1837463378907	-1109.27001953125	-610.4953613281251	333.8984680175782	-1076.284790039063	-451.4009399414064	181.0227661132813	-1092.975952148438	-453.6482238769532	181.023910522461	-1052.567626953125	-502.2846679687501	186.8336029052735	-1001.889404296875	nan	nan	nan	nan	nan	nan	nan	nan	nan	
2	0.005	-142.3942565917969	1765.59130859375	-1228.8515625	-270.5379638671876	1724.057495117188	-1269.276733398438	-326.1321411132813	1692.607543945313	-1136.859741210938	-350.0386047363282	1569.8330078125	-1185.72998046875	-400.0670166015626	1253.67724609375	-1171.5908203125	-226.2924041748047	1490.711791992188	-1185.045043945313	-274.5741577148438	1543.859497070313	-1336.234985351563	-137.6192321777344	1430.445190429688	-1405.87255859375	-101.989486694336	1439.727416992188	-1371.85546875	-76.58756256103517	1396.551025390625	-1406.750854492188	-31.90274047851563	1352.208374023438	-1403.065795898438	-60.36114501953126	1305.802734375	-1364.235595703125	214.7396850585938	1293.43017578125	-1263.943725585938	232.3582458496094	1288.860717773438	-1337.413818359375	305.8701782226563	1289.19482421875	-1249.8671875	-261.8013305664063	1520.1513671875	-1032.910034179688	-143.2879791259766	1378.346801757813	-974.7097167968752	-104.6681060791016	1393.520629882813	-1000.044555664063	-85.9339065551758	1338.853881835938	-983.121520996094	-32.17126846313477	1310.098022460938	-996.250183105469	-62.97047424316408	1267.00634765625	-1050.678833007813	219.0488433837891	1271.30029296875	-1143.767700195313	225.9455108642579	1237.964233398438	-1075.515014648438	312.2478637695313	1261.507446289063	-1148.665893554688	-226.8133850097657	1070.020385742188	-1283.64892578125	-215.2975006103516	1075.010498046875	-1054.541748046875	-407.645721435547	1114.935546875	-1157.0712890625	-415.5879516601564	1084.804931640625	-1184.057495117188	-412.8470458984376	1085.005615234375	-1127.1572265625	-325.1638183593751	808.292175292969	-1321.334838867188	-279.3989257812501	736.7766113281251	-1320.118041992188	-234.1691131591797	744.6333618164064	-1326.628051757813	-295.5281372070313	682.6631469726564	-1304.158447265625	-263.5630798339844	551.9379882812501	-1286.673461914063	-267.2032775878907	544.7177734375001	-1154.465209960938	-246.9737854003907	327.4093322753907	-1222.4990234375	-321.3059997558594	294.9178161621094	-1259.808349609375	-280.7349853515626	283.4802551269532	-1245.2646484375	-281.8056030273438	208.9553833007813	-1201.24072265625	-356.7593078613282	128.6088256835938	-1207.049926757813	-327.0902709960938	145.495101928711	-1127.069580078125	-421.1996154785157	100.012924194336	-1161.388305664063	-209.123275756836	55.7920608520508	-1127.893676757813	-207.5551452636719	49.303279876709	-1173.480346679688	-256.0122680664063	34.50373077392579	-1224.058959960938	-218.1217193603516	807.7161254882815	-986.0889282226565	-176.1128692626953	756.5162963867189	-992.5310058593752	-145.4814605712891	763.6507568359376	-1000.694152832031	-194.2423248291016	675.4465942382814	-998.000427246094	-189.774398803711	562.9017944335939	-1011.780334472656	-200.7712097167969	556.5276489257814	-1138.090698242188	-296.6382446289063	411.6563720703126	-1031.885009765625	-400.7465820312501	428.3773803710939	-1004.145202636719	-377.8681030273438	389.4187927246095	-1014.880615234375	-408.5609130859376	348.6648864746094	-1048.455078125	-531.1032104492189	321.0482788085938	-1021.6162109375	-510.6733398437501	322.0121154785157	-1109.408203125	-611.2790527343751	335.3716430664063	-1076.460571289063	-451.9731445312501	181.8806610107422	-1093.21875	-454.4508666992189	180.9041290283203	-1052.357421875	-503.4719543457032	187.8183898925782	-1001.776428222656	nan	nan	nan	nan	nan	nan	nan	nan	nan	
3	0.01	-142.3561401367188	1765.538330078125	-1228.76171875	-270.4958801269532	1724.136474609375	-1269.176879882813	-325.9100341796876	1692.5927734375	-1136.804931640625	-349.9790039062501	1569.8642578125	-1185.745361328125	-399.9175415039064	1253.686157226563	-1171.65625	-226.2634887695313	1490.7353515625	-1185.07470703125	-274.5639343261719	1543.890258789063	-1336.2578125	-137.4889678955078	1430.473510742188	-1405.8466796875	-101.8422927856446	1439.78369140625	-1371.8544921875	-76.49011993408205	1396.553466796875	-1406.793212890625	-31.7798080444336	1352.220336914063	-1403.035400390625	-60.25162887573244	1305.821899414063	-1364.217407226563	214.444564819336	1293.148071289063	-1264.218994140625	232.3431091308594	1288.737670898438	-1337.534301757813	305.9779663085938	1288.807006835938	-1249.984252929688	-261.7792968750001	1520.183227539063	-1032.903198242188	-143.2590637207032	1378.371337890625	-974.7619628906252	-104.6723785400391	1393.576782226563	-1000.096496582031	-85.9097137451172	1338.850463867188	-983.1602172851565	-31.90422821044923	1310.181518554688	-996.4497680664065	-62.90151977539064	1267.040283203125	-1050.768798828125	219.5769195556641	1271.59765625	-1143.965942382813	227.0189819335938	1238.695556640625	-1074.559448242188	312.2153320312501	1261.563842773438	-1149.031005859375	-226.6497802734376	1070.010620117188	-1283.764404296875	-214.9199676513672	1075.042358398438	-1054.73681640625	-407.4917602539064	1114.939575195313	-1157.13232421875	-415.4061584472657	1084.856567382813	-1184.12939453125	-412.7242126464845	1085.069946289063	-1127.231567382813	-325.0846862792969	808.3344726562502	-1321.404663085938	-279.4164428710938	736.8329467773439	-1320.264404296875	-234.1625976562501	744.6842041015626	-1326.860595703125	-295.4532165527344	682.6854858398439	-1304.265625	-263.5065307617188	551.5147705078126	-1286.99853515625	-266.9264221191407	544.6936645507814	-1154.73681640625	-247.393295288086	327.8447265625001	-1223.277587890625	-321.5621337890626	294.9893188476563	-1260.1640625	-280.1455993652344	283.8670043945313	-1246.356079101563	-281.8287963867188	209.0211944580079	-1201.9345703125	-356.3818664550782	128.2415466308594	-1207.28271484375	-326.9805297851563	145.5290832519532	-1127.344116210938	-421.2136230468751	100.0364532470703	-1161.476684570313	-209.0921020507813	55.93386840820314	-1127.961059570313	-207.5077819824219	49.24235153198244	-1173.558959960938	-255.7941436767579	34.87772369384766	-1224.656127929688	-218.0784149169922	807.6823730468752	-986.1284790039065	-176.076904296875	756.4703369140626	-992.6082763671877	-145.3255615234375	763.6881713867189	-1000.833374023438	-194.1021575927735	675.4396972656251	-998.1834106445315	-189.7197570800782	562.9490966796876	-1011.920654296875	-200.6143188476563	556.5354614257814	-1138.268310546875	-296.8796081542969	411.9797363281251	-1032.091186523438	-400.8086853027345	428.9370422363282	-1004.377380371094	-378.2062683105469	389.9715270996095	-1015.079711914063	-409.0001831054689	349.3977050781251	-1048.565551757813	-531.6168212890626	321.9773254394532	-1021.900390625	-511.3016967773439	322.9471740722657	-1109.591064453125	-611.8077392578126	336.5797424316407	-1076.634521484375	-452.8806457519532	182.6083984375	-1093.390258789063	-455.2746887207032	182.46044921875	-1052.896606445313	-504.179168701172	188.6368560791016	-1001.574523925781	nan	nan	nan	nan	nan	nan	nan	nan	nan	
4	0.015	-142.3604278564453	1765.580078125	-1228.737060546875	-270.4494934082032	1724.240966796875	-1269.08935546875	-325.9302368164063	1692.615234375	-1136.7255859375	-349.9591064453126	1569.850952148438	-1185.766723632813	-399.7971801757814	1253.674682617188	-1171.720336914063	-226.2475738525391	1490.785034179688	-1185.054443359375	-274.4820251464844	1543.915893554688	-1336.268188476563	-137.4066009521485	1430.485961914063	-1405.865356445313	-101.7185287475586	1439.794677734375	-1371.870483398438	-76.37320709228517	1396.567260742188	-1406.75390625	-31.69673919677735	1352.252075195313	-1403.063232421875	-60.15196990966798	1305.84619140625	-1364.261474609375	214.5020294189454	1292.98095703125	-1264.353881835938	232.3747100830079	1288.668579101563	-1337.685302734375	306.0172119140626	1288.47802734375	-1250.14794921875	-261.7606811523438	1520.232788085938	-1032.937133789063	-143.2255401611328	1378.384765625	-974.861267089844	-104.5247497558594	1393.635009765625	-1000.179077148438	-85.81624603271486	1338.824829101563	-983.2924804687502	-31.60883522033692	1309.348876953125	-996.5081787109377	-62.74057388305665	1267.184448242188	-1050.994750976563	220.165023803711	1271.85302734375	-1144.242553710938	226.9600677490235	1238.76513671875	-1074.869750976563	312.2505798339844	1261.591552734375	-1149.322998046875	-226.4882965087891	1070.02099609375	-1283.8291015625	-214.7856445312501	1075.045166015625	-1054.916625976563	-407.2738037109376	1115.0009765625	-1157.19921875	-415.1356201171876	1084.882934570313	-1184.152709960938	-412.5318298339845	1085.090087890625	-1127.291625976563	-325.0832519531251	808.3848876953127	-1321.450561523438	-279.3548583984376	736.8719482421876	-1320.485229492188	-234.1200103759766	744.7711791992189	-1327.076782226563	-295.4410705566407	682.7551269531251	-1304.434326171875	-263.6281433105469	552.0710449218751	-1287.238159179688	-266.4868774414063	544.6105957031251	-1155.10302734375	-247.4609832763672	327.8428955078126	-1223.96484375	-321.8328247070313	295.1090087890626	-1260.562377929688	-280.3522644042969	283.8710021972657	-1246.806396484375	-281.9530029296876	208.9997863769532	-1202.553100585938	-356.5401611328126	128.3032379150391	-1207.533447265625	-326.9365234375001	145.6005249023438	-1127.6318359375	-421.1820678710939	100.0768508911133	-1161.589477539063	-209.0229034423829	56.11682510375978	-1128.0361328125	-207.4952239990235	49.19153976440431	-1173.665893554688	-255.8356170654297	34.72991180419923	-1224.748046875	-218.0428771972657	807.6778564453127	-986.2075805664065	-176.0198211669922	756.4697875976564	-992.5378417968752	-145.2150115966797	763.6361083984376	-1000.928649902344	-193.9706115722657	675.3756713867189	-998.283630371094	-188.9024353027344	563.2437133789064	-1011.617797851563	-200.5997772216797	556.5877075195314	-1138.399780273438	-297.0995483398438	412.2593688964845	-1032.228759765625	-400.5252990722657	429.882293701172	-1004.326110839844	-378.4653625488282	390.5348205566407	-1015.363586425781	-409.3291015625001	349.9885864257813	-1048.676513671875	-532.9849853515626	322.7233276367188	-1022.391357421875	-511.1717529296876	323.0494689941407	-1109.831176757813	-612.3296508789064	337.7072753906251	-1076.90771484375	-453.8769531250001	183.3179168701172	-1093.54345703125	-456.4480895996095	183.2224884033203	-1052.838012695313	-505.0934143066407	189.2645416259766	-1002.091735839844	nan	nan	nan	nan	nan	nan	nan	nan	nan	
